<?xml version="1.0" encoding="UTF-8"?>
<svg xmlns="http://www.w3.org/2000/svg" width="1280" height="720" viewBox="0 0 1280 720" role="img" aria-label="Bootstrap Gate Drive">
  <defs>
    <linearGradient id="bg" x1="0" y1="0" x2="1" y2="1">
      <stop offset="0%" stop-color="#F8FAFC"/>
      <stop offset="100%" stop-color="#EEF2FF"/>
    </linearGradient>
    <linearGradient id="accent" x1="0" y1="0" x2="1" y2="0">
      <stop offset="0%" stop-color="#D97706"/>
      <stop offset="100%" stop-color="#06B6D4"/>
    </linearGradient>
    <pattern id="grid" width="32" height="32" patternUnits="userSpaceOnUse">
      <path d="M32 0H0V32" fill="none" stroke="#E2E8F0" stroke-width="1"/>
    </pattern>
  </defs>
  <rect width="1280" height="720" fill="url(#bg)"/>
  <rect width="1280" height="720" fill="url(#grid)" opacity="0.55"/>
  <rect x="36" y="28" width="1208" height="664" rx="28" fill="#FFFFFF" stroke="#CBD5E1" stroke-width="2"/>
  <rect x="36" y="28" width="1208" height="10" fill="url(#accent)"/>
  <text x="72" y="88" fill="#0B5FFF" font-family="Segoe UI, Arial, sans-serif" font-size="18" font-weight="700" letter-spacing="3">SICORE KNOWLEDGE DIAGRAM</text>
  <text x="72" y="132" fill="#0B0F19" font-family="Segoe UI, Arial, sans-serif" font-size="36" font-weight="800">Bootstrap Gate Drive</text>
  <text x="72" y="168" fill="#64748B" font-family="Segoe UI, Arial, sans-serif" font-size="18">Hero diagram for this knowledge article</text>
  
      
  <rect x="140" y="300" width="220" height="100" rx="14" fill="#EFF6FF" stroke="#0B5FFF" stroke-width="2.5"/>
  <text x="250" y="356" text-anchor="middle" fill="#0B0F19" font-family="Segoe UI, Arial, sans-serif" font-size="18" font-weight="700">PWM / MCU</text>
      
  <rect x="480" y="300" width="260" height="100" rx="14" fill="#FEF3C7" stroke="#F59E0B" stroke-width="2.5"/>
  <text x="610" y="356" text-anchor="middle" fill="#0B0F19" font-family="Segoe UI, Arial, sans-serif" font-size="18" font-weight="700">Gate driver</text>
      
  <rect x="880" y="300" width="240" height="100" rx="14" fill="#DBEAFE" stroke="#0B5FFF" stroke-width="2.5"/>
  <text x="1000" y="356" text-anchor="middle" fill="#0B0F19" font-family="Segoe UI, Arial, sans-serif" font-size="18" font-weight="700">Power FET</text>
      
  <defs><marker id="a370350470350" markerWidth="10" markerHeight="10" refX="8" refY="3" orient="auto"><path d="M0,0 L8,3 L0,6 Z" fill="#F59E0B"/></marker></defs>
  <line x1="370" y1="350" x2="470" y2="350" stroke="#F59E0B" stroke-width="3" marker-end="url(#a370350470350)"/>
      
  <defs><marker id="a750350870350" markerWidth="10" markerHeight="10" refX="8" refY="3" orient="auto"><path d="M0,0 L8,3 L0,6 Z" fill="#0B5FFF"/></marker></defs>
  <line x1="750" y1="350" x2="870" y2="350" stroke="#0B5FFF" stroke-width="3" marker-end="url(#a750350870350)"/>
      <text x="640" y="470" text-anchor="middle" fill="#64748B" font-size="18" font-family="Segoe UI, Arial, sans-serif">Isolated / bootstrap drive path</text>
  <text x="72" y="666" fill="#64748B" font-family="Segoe UI, Arial, sans-serif" font-size="14">Educational illustration for Knowledge Center — not a product photo</text>
</svg>
