<?xml version="1.0" encoding="UTF-8"?>
<svg xmlns="http://www.w3.org/2000/svg" width="1280" height="720" viewBox="0 0 1280 720" role="img" aria-label="Near-Field vs Far-Field">
  <defs>
    <linearGradient id="bg" x1="0" y1="0" x2="1" y2="1">
      <stop offset="0%" stop-color="#F8FAFC"/>
      <stop offset="100%" stop-color="#EEF2FF"/>
    </linearGradient>
    <linearGradient id="accent" x1="0" y1="0" x2="1" y2="0">
      <stop offset="0%" stop-color="#0891B2"/>
      <stop offset="100%" stop-color="#06B6D4"/>
    </linearGradient>
    <pattern id="grid" width="32" height="32" patternUnits="userSpaceOnUse">
      <path d="M32 0H0V32" fill="none" stroke="#E2E8F0" stroke-width="1"/>
    </pattern>
  </defs>
  <rect width="1280" height="720" fill="url(#bg)"/>
  <rect width="1280" height="720" fill="url(#grid)" opacity="0.55"/>
  <rect x="36" y="28" width="1208" height="664" rx="28" fill="#FFFFFF" stroke="#CBD5E1" stroke-width="2"/>
  <rect x="36" y="28" width="1208" height="10" fill="url(#accent)"/>
  <text x="72" y="88" fill="#0B5FFF" font-family="Segoe UI, Arial, sans-serif" font-size="18" font-weight="700" letter-spacing="3">SICORE KNOWLEDGE DIAGRAM</text>
  <text x="72" y="132" fill="#0B0F19" font-family="Segoe UI, Arial, sans-serif" font-size="36" font-weight="800">Near-Field vs Far-Field</text>
  <text x="72" y="168" fill="#64748B" font-family="Segoe UI, Arial, sans-serif" font-size="18">Hero diagram for this knowledge article</text>
  
      
  <rect x="100" y="280" width="200" height="90" rx="14" fill="#EFF6FF" stroke="#0B5FFF" stroke-width="2.5"/>
  <text x="200" y="331" text-anchor="middle" fill="#0B0F19" font-family="Segoe UI, Arial, sans-serif" font-size="18" font-weight="700">RF source</text>
      <path d="M340 325 C420 250, 520 400, 620 325 S820 250, 920 325" fill="none" stroke="#0B5FFF" stroke-width="4"/>
      <circle cx="360" cy="325" r="8" fill="#06B6D4"/>
      <circle cx="520" cy="325" r="8" fill="#06B6D4"/>
      <circle cx="700" cy="325" r="8" fill="#06B6D4"/>
      <circle cx="880" cy="325" r="8" fill="#06B6D4"/>
      
  <rect x="980" y="280" width="200" height="90" rx="14" fill="#D1FAE5" stroke="#059669" stroke-width="2.5"/>
  <text x="1080" y="331" text-anchor="middle" fill="#0B0F19" font-family="Segoe UI, Arial, sans-serif" font-size="18" font-weight="700">Rectenna</text>
      <text x="640" y="430" text-anchor="middle" fill="#64748B" font-size="18" font-family="Segoe UI, Arial, sans-serif">Propagating wave · distance-first link</text>
  <text x="72" y="666" fill="#64748B" font-family="Segoe UI, Arial, sans-serif" font-size="14">Educational illustration for Knowledge Center — not a product photo</text>
</svg>
