<?xml version="1.0" encoding="UTF-8"?>
<svg xmlns="http://www.w3.org/2000/svg" width="1280" height="720" viewBox="0 0 1280 720" role="img" aria-label="PCB Coil">
  <defs>
    <linearGradient id="bg" x1="0" y1="0" x2="1" y2="1">
      <stop offset="0%" stop-color="#F8FAFC"/>
      <stop offset="100%" stop-color="#EEF2FF"/>
    </linearGradient>
    <linearGradient id="accent" x1="0" y1="0" x2="1" y2="0">
      <stop offset="0%" stop-color="#4F46E5"/>
      <stop offset="100%" stop-color="#06B6D4"/>
    </linearGradient>
    <pattern id="grid" width="32" height="32" patternUnits="userSpaceOnUse">
      <path d="M32 0H0V32" fill="none" stroke="#E2E8F0" stroke-width="1"/>
    </pattern>
  </defs>
  <rect width="1280" height="720" fill="url(#bg)"/>
  <rect width="1280" height="720" fill="url(#grid)" opacity="0.55"/>
  <rect x="36" y="28" width="1208" height="664" rx="28" fill="#FFFFFF" stroke="#CBD5E1" stroke-width="2"/>
  <rect x="36" y="28" width="1208" height="10" fill="url(#accent)"/>
  <text x="72" y="88" fill="#0B5FFF" font-family="Segoe UI, Arial, sans-serif" font-size="18" font-weight="700" letter-spacing="3">SICORE KNOWLEDGE DIAGRAM</text>
  <text x="72" y="132" fill="#0B0F19" font-family="Segoe UI, Arial, sans-serif" font-size="36" font-weight="800">PCB Coil</text>
  <text x="72" y="168" fill="#64748B" font-family="Segoe UI, Arial, sans-serif" font-size="18">Hero diagram for this knowledge article</text>
  
      <rect x="180" y="240" width="920" height="320" rx="16" fill="#0F172A"/>
      <rect x="220" y="280" width="220" height="120" rx="10" fill="#1E293B" stroke="#06B6D4" stroke-width="2"/>
      <rect x="480" y="280" width="220" height="120" rx="10" fill="#1E293B" stroke="#F59E0B" stroke-width="2"/>
      <rect x="740" y="280" width="300" height="120" rx="10" fill="#1E293B" stroke="#059669" stroke-width="2"/>
      <path d="M260 460 H980" stroke="#38BDF8" stroke-width="6"/>
      <path d="M260 500 H980" stroke="#FBBF24" stroke-width="4"/>
      <text x="330" y="350" text-anchor="middle" fill="#E2E8F0" font-size="16" font-family="Segoe UI, Arial, sans-serif">Switch</text>
      <text x="590" y="350" text-anchor="middle" fill="#E2E8F0" font-size="16" font-family="Segoe UI, Arial, sans-serif">Driver</text>
      <text x="890" y="350" text-anchor="middle" fill="#E2E8F0" font-size="16" font-family="Segoe UI, Arial, sans-serif">Sense / MCU</text>
  <text x="72" y="666" fill="#64748B" font-family="Segoe UI, Arial, sans-serif" font-size="14">Educational illustration for Knowledge Center — not a product photo</text>
</svg>
